<svg width="135.26000366210937px" height="124.439990234375px" xmlns="http://www.w3.org/2000/svg" viewBox="182.3699981689453 12.780004882812499 135.26000366210937 124.439990234375" style="background: rgba(0, 0, 0, 0) none repeat scroll 0% 0%; --darkreader-inline-bgcolor: rgba(0, 0, 0, 0); --darkreader-inline-bgimage: none;" data-darkreader-inline-bgcolor="" data-darkreader-inline-bgimage="" preserveAspectRatio="xMidYMid"><defs><filter id="editing-extrude-glow"><feFlood flood-color="#333333" result="flood-1"></feFlood><feMorphology operator="erode" radius="1" in="SourceAlpha" result="erode"></feMorphology><feComposite operator="in" in="flood-1" in2="erode" result="comp1"></feComposite><feConvolveMatrix order="3,3" divisor="1" in="comp1" result="convolve" kernelMatrix="0 0 0 1 1 1 0 0 0"></feConvolveMatrix><feOffset dx="-3" dy="0" in="convolve" result="extrude"></feOffset><feComposite operator="in" in="flood-1" in2="extrude" result="comp-extrude"></feComposite><feFlood flood-color="#000000" result="flood-2"></feFlood><feComposite operator="in" in="flood-2" in2="SourceAlpha" result="comp2"></feComposite><feMorphology operator="dilate" radius="1" in="comp2" result="dilate"></feMorphology><feOffset dx="-4.5" dy="0" in="dilate" result="offset"></feOffset><feGaussianBlur in="offset" stdDeviation="5.8" result="blur"></feGaussianBlur><feComponentTransfer in="blur" result="shadow"><feFuncA type="linear" slope="0.8" intercept="-0.2"></feFuncA></feComponentTransfer><feMerge><feMergeNode in="shadow"></feMergeNode><feMergeNode in="comp-extrude"></feMergeNode><feMergeNode in="SourceGraphic"></feMergeNode></feMerge></filter></defs><g filter="url(#editing-extrude-glow)"><g transform="translate(210.74234580993652, 97.39999961853027)"><path d="M29.18 1.28L29.18 1.28L29.18 1.28Q20.99 1.28 20.22-10.37L20.22-10.37L9.22-10.37L9.22-10.37Q7.94-7.42 7.04-4.86L7.04-4.86L5.38 0L-3.58 0L16.58-42.24L30.34-42.24L33.02-11.14L33.02-11.14Q33.66-4.42 36.22-2.43L36.22-2.43L36.22-2.43Q34.37 1.28 29.18 1.28ZM14.72-23.17L11.20-15.04L20.03-15.04L19.26-31.49L19.26-33.22L14.72-23.17ZM72.64-13.25L72.64-13.25L72.64-13.25Q74.30-12.03 74.30-9.44L74.30-9.44L74.30-9.44Q74.30-6.85 73.18-5.02L73.18-5.02L73.18-5.02Q72.06-3.20 69.89-1.79L69.89-1.79L69.89-1.79Q65.22 1.22 57.06 1.22L57.06 1.22L57.06 1.22Q48.90 1.22 44.45-3.04L44.45-3.04L44.45-3.04Q40-7.30 40-14.85L40-14.85L40-14.85Q40-25.54 45.57-33.66L45.57-33.66L45.57-33.66Q49.79-39.68 57.34-42.24L57.34-42.24L57.34-42.24Q61.25-43.52 65.09-43.52L65.09-43.52L65.09-43.52Q68.93-43.52 71.30-43.01L71.30-43.01L71.30-43.01Q73.66-42.50 75.46-41.47L75.46-41.47L75.46-41.47Q79.36-39.23 79.36-35.65L79.36-35.65L79.36-35.65Q79.36-32.38 76.29-29.95L76.29-29.95L76.29-29.95Q73.47-27.78 71.17-27.78L71.17-27.78L71.17-27.78Q68.86-27.78 67.90-28.10L67.90-28.10L67.90-28.10Q68.16-30.40 68.16-31.90L68.16-31.90L68.16-31.90Q68.16-33.41 68.10-34.50L68.10-34.50L68.10-34.50Q68.03-35.58 67.71-36.61L67.71-36.61L67.71-36.61Q67.07-38.98 65.12-38.98L65.12-38.98L65.12-38.98Q63.17-38.98 61.22-37.15L61.22-37.15L61.22-37.15Q59.26-35.33 57.60-32.26L57.60-32.26L57.60-32.26Q53.82-25.28 53.82-17.02L53.82-17.02L53.82-17.02Q53.82-13.06 56.06-10.78L56.06-10.78L56.06-10.78Q58.30-8.51 63.10-8.51L63.10-8.51L63.10-8.51Q66.69-8.51 70.08-10.88L70.08-10.88L70.08-10.88Q71.55-11.90 72.64-13.25Z" fill="#eb6c6c" style="--darkreader-inline-fill: #851212;" data-darkreader-inline-fill=""></path></g></g><style>text {
  font-size: 64px;
  font-family: Arial Black;
  dominant-baseline: central;
  text-anchor: middle;
}</style><style class="darkreader darkreader--sync" media="screen"></style></svg>